<svg width="800" height="600" viewBox="0 0 800 600" fill="none" xmlns="http://www.w3.org/2000/svg">
  <rect width="800" height="600" rx="12" fill="#18181B"/>
  
  <rect width="800" height="40" rx="12" fill="#27272A"/>
  <rect x="0" y="30" width="800" height="10" fill="#27272A"/> <circle cx="30" cy="20" r="6" fill="#EF4444"/>
  <circle cx="55" cy="20" r="6" fill="#EAB308"/>
  <circle cx="80" cy="20" r="6" fill="#22C55E"/>
  <text x="400" y="25" text-anchor="middle" fill="#71717A" font-family="sans-serif" font-size="14">Power-Chart Architecture</text>

  <g transform="translate(50, 80)">
    
    <text x="350" y="30" text-anchor="middle" fill="#60A5FA" font-family="sans-serif" font-size="16" font-weight="bold">Client Layer</text>
    <rect x="150" y="50" width="180" height="60" rx="8" fill="#27272A" stroke="#3B82F6" stroke-width="2"/>
    <text x="240" y="85" text-anchor="middle" fill="#E4E4E7" font-family="sans-serif">Patient Portal</text>
    
    <rect x="370" y="50" width="180" height="60" rx="8" fill="#27272A" stroke="#3B82F6" stroke-width="2"/>
    <text x="460" y="85" text-anchor="middle" fill="#E4E4E7" font-family="sans-serif">Admin Dashboard</text>

    <path d="M350 110 V 150" stroke="#52525B" stroke-width="2" stroke-dasharray="4 4"/>
    <polygon points="350,155 345,145 355,145" fill="#52525B"/>

    <text x="350" y="180" text-anchor="middle" fill="#22C55E" font-family="sans-serif" font-size="16" font-weight="bold">Backend (Spring Boot)</text>
    <rect x="100" y="200" width="500" height="140" rx="8" fill="#27272A" stroke="#22C55E" stroke-width="2"/>
    
    <rect x="120" y="220" width="140" height="40" rx="4" fill="#3F3F46"/>
    <text x="190" y="245" text-anchor="middle" fill="#E4E4E7" font-size="12" font-family="sans-serif">Clinical History</text>
    
    <rect x="280" y="220" width="140" height="40" rx="4" fill="#3F3F46"/>
    <text x="350" y="245" text-anchor="middle" fill="#E4E4E7" font-size="12" font-family="sans-serif">Inpatient Mgmt</text>
    
    <rect x="440" y="220" width="140" height="40" rx="4" fill="#3F3F46"/>
    <text x="510" y="245" text-anchor="middle" fill="#E4E4E7" font-size="12" font-family="sans-serif">Billing Service</text>

    <rect x="120" y="280" width="460" height="40" rx="4" fill="#3F3F46"/>
    <text x="350" y="305" text-anchor="middle" fill="#E4E4E7" font-size="12" font-family="sans-serif">Hibernate / JPA / Data Access Layer</text>

    <path d="M350 340 V 380" stroke="#52525B" stroke-width="2" stroke-dasharray="4 4"/>
    <polygon points="350,385 345,375 355,375" fill="#52525B"/>

    <text x="350" y="410" text-anchor="middle" fill="#F59E0B" font-family="sans-serif" font-size="16" font-weight="bold">Database</text>
    <path d="M250 430 C250 420 450 420 450 430 V 480 C450 490 250 490 250 480 V 430 Z" fill="#27272A" stroke="#F59E0B" stroke-width="2"/>
    <ellipse cx="350" cy="430" rx="100" ry="10" fill="none" stroke="#F59E0B" stroke-width="2"/>
    <text x="350" y="465" text-anchor="middle" fill="#E4E4E7" font-family="sans-serif">MySQL Database</text>
    
  </g>
</svg>