<svg width="800" height="600" viewBox="0 0 800 600" fill="none" xmlns="http://www.w3.org/2000/svg">
  <rect width="800" height="600" rx="12" fill="#18181B"/>
  
  <rect width="800" height="40" rx="12" fill="#27272A"/>
  <rect x="0" y="30" width="800" height="10" fill="#27272A"/>
  <circle cx="30" cy="20" r="6" fill="#EF4444"/>
  <circle cx="55" cy="20" r="6" fill="#EAB308"/>
  <circle cx="80" cy="20" r="6" fill="#22C55E"/>
  <text x="400" y="25" text-anchor="middle" fill="#71717A" font-family="sans-serif" font-size="14">Sportified SOP Ecosystem</text>

  <g transform="translate(50, 80)">
    
    <text x="350" y="20" text-anchor="middle" fill="#60A5FA" font-family="sans-serif" font-size="14" font-weight="bold">Student Lifecycle Flow</text>
    
    <g transform="translate(0, 40)">
      <rect x="0" y="0" width="100" height="40" rx="4" fill="#27272A" stroke="#3B82F6"/>
      <text x="50" y="25" text-anchor="middle" fill="#E4E4E7" font-size="10" font-family="sans-serif">Inquiry</text>
      
      <path d="M105 20 H 135" stroke="#52525B" stroke-width="2"/>
      <polygon points="135,20 125,15 125,25" fill="#52525B"/>

      <rect x="140" y="0" width="100" height="40" rx="4" fill="#27272A" stroke="#3B82F6"/>
      <text x="190" y="25" text-anchor="middle" fill="#E4E4E7" font-size="10" font-family="sans-serif">Trial Session</text>

      <path d="M245 20 H 275" stroke="#52525B" stroke-width="2"/>
      <polygon points="275,20 265,15 265,25" fill="#52525B"/>

      <rect x="280" y="0" width="100" height="40" rx="4" fill="#27272A" stroke="#22C55E"/>
      <text x="330" y="25" text-anchor="middle" fill="#E4E4E7" font-size="10" font-family="sans-serif">Enrolment</text>

      <path d="M385 20 H 415" stroke="#52525B" stroke-width="2"/>
      <polygon points="415,20 405,15 405,25" fill="#52525B"/>

      <rect x="420" y="0" width="100" height="40" rx="4" fill="#27272A" stroke="#A78BFA"/>
      <text x="470" y="25" text-anchor="middle" fill="#E4E4E7" font-size="10" font-family="sans-serif">Batch Allocation</text>
      
      <path d="M525 20 H 555" stroke="#52525B" stroke-width="2"/>
      <polygon points="555,20 545,15 545,25" fill="#52525B"/>

      <rect x="560" y="0" width="100" height="40" rx="4" fill="#27272A" stroke="#F59E0B"/>
      <text x="610" y="25" text-anchor="middle" fill="#E4E4E7" font-size="10" font-family="sans-serif">Attendance</text>
    </g>

    <text x="350" y="130" text-anchor="middle" fill="#A78BFA" font-family="sans-serif" font-size="14" font-weight="bold">Core Modules &amp; Roles</text>

    <rect x="50" y="150" width="180" height="120" rx="8" fill="#27272A" stroke="#3B82F6" stroke-width="1"/>
    <rect x="50" y="150" width="180" height="30" rx="8" fill="#1E3A8A"/>
    <rect x="50" y="170" width="180" height="10" fill="#1E3A8A"/> <text x="140" y="170" text-anchor="middle" fill="#E4E4E7" font-weight="bold" font-size="12">Operations (Ops)</text>
    <text x="140" y="200" text-anchor="middle" fill="#94A3B8" font-size="10">• Batch Schedules</text>
    <text x="140" y="220" text-anchor="middle" fill="#94A3B8" font-size="10">• Coach Rosters</text>
    <text x="140" y="240" text-anchor="middle" fill="#94A3B8" font-size="10">• Student Logs</text>

    <rect x="260" y="150" width="180" height="120" rx="8" fill="#27272A" stroke="#22C55E" stroke-width="1"/>
    <rect x="260" y="150" width="180" height="30" rx="8" fill="#064E3B"/>
    <rect x="260" y="170" width="180" height="10" fill="#064E3B"/>
    <text x="350" y="170" text-anchor="middle" fill="#E4E4E7" font-weight="bold" font-size="12">Accounts / BD</text>
    <text x="350" y="200" text-anchor="middle" fill="#94A3B8" font-size="10">• Saturday Tally</text>
    <text x="350" y="220" text-anchor="middle" fill="#94A3B8" font-size="10">• Revenue Reports</text>
    <text x="350" y="240" text-anchor="middle" fill="#94A3B8" font-size="10">• Pending Dues</text>

    <rect x="470" y="150" width="180" height="120" rx="8" fill="#27272A" stroke="#F59E0B" stroke-width="1"/>
    <rect x="470" y="150" width="180" height="30" rx="8" fill="#78350F"/>
    <rect x="470" y="170" width="180" height="10" fill="#78350F"/>
    <text x="560" y="170" text-anchor="middle" fill="#E4E4E7" font-weight="bold" font-size="12">Coaching Staff</text>
    <text x="560" y="200" text-anchor="middle" fill="#94A3B8" font-size="10">• Session Delivery</text>
    <text x="560" y="220" text-anchor="middle" fill="#94A3B8" font-size="10">• Performance Matrix</text>
    <text x="560" y="240" text-anchor="middle" fill="#94A3B8" font-size="10">• Student Feedback</text>

    <text x="350" y="320" text-anchor="middle" fill="#F59E0B" font-family="sans-serif" font-size="14" font-weight="bold">Key Reports &amp; SOPs</text>
    
    <path d="M100 340 H 600" stroke="#52525B" stroke-width="1"/>
    
    <g transform="translate(100, 360)">
      <rect x="0" y="0" width="140" height="60" rx="6" fill="#27272A" stroke="#52525B"/>
      <text x="70" y="25" text-anchor="middle" fill="#E4E4E7" font-weight="bold" font-size="11">Coach Review</text>
      <text x="70" y="45" text-anchor="middle" fill="#71717A" font-size="10">Rubric Score / 100</text>
    </g>

    <g transform="translate(280, 360)">
      <rect x="0" y="0" width="140" height="60" rx="6" fill="#27272A" stroke="#52525B"/>
      <text x="70" y="25" text-anchor="middle" fill="#E4E4E7" font-weight="bold" font-size="11">Saturday Collab</text>
      <text x="70" y="45" text-anchor="middle" fill="#71717A" font-size="10">Revenue vs Expense</text>
    </g>

    <g transform="translate(460, 360)">
      <rect x="0" y="0" width="140" height="60" rx="6" fill="#27272A" stroke="#52525B"/>
      <text x="70" y="25" text-anchor="middle" fill="#E4E4E7" font-weight="bold" font-size="11">Conversion Funnel</text>
      <text x="70" y="45" text-anchor="middle" fill="#71717A" font-size="10">Leads &gt; Closures</text>
    </g>

  </g>
</svg>